<?xml version="1.0" encoding="UTF-8"?>
<!DOCTYPE svg PUBLIC "-//W3C//DTD SVG 1.1//EN" "http://www.w3.org/Graphics/SVG/1.1/DTD/svg11.dtd">
<svg xmlns="http://www.w3.org/2000/svg" version="1.1" width="224px" height="227px" style="shape-rendering:geometricPrecision; text-rendering:geometricPrecision; image-rendering:optimizeQuality; fill-rule:evenodd; clip-rule:evenodd" xmlns:xlink="http://www.w3.org/1999/xlink">
<g><path style="opacity:1" fill="#fefffe" d="M -0.5,-0.5 C 74.1667,-0.5 148.833,-0.5 223.5,-0.5C 223.5,75.1667 223.5,150.833 223.5,226.5C 148.833,226.5 74.1667,226.5 -0.5,226.5C -0.5,150.833 -0.5,75.1667 -0.5,-0.5 Z"/></g>
<g><path style="opacity:1" fill="#90d6ff" d="M 217.5,8.5 C 217.5,8.83333 217.5,9.16667 217.5,9.5C 146.833,9.5 76.1667,9.5 5.5,9.5C 5.5,80.1667 5.5,150.833 5.5,221.5C 5.16667,221.5 4.83333,221.5 4.5,221.5C 4.5,150.5 4.5,79.5 4.5,8.5C 75.5,8.5 146.5,8.5 217.5,8.5 Z"/></g>
<g><path style="opacity:1" fill="#39b6ff" d="M 217.5,9.5 C 217.5,80.1667 217.5,150.833 217.5,221.5C 146.833,221.5 76.1667,221.5 5.5,221.5C 5.5,150.833 5.5,80.1667 5.5,9.5C 76.1667,9.5 146.833,9.5 217.5,9.5 Z"/></g>
<g><path style="opacity:1" fill="#fefeff" d="M 11.5,15.5 C 78.1667,15.5 144.833,15.5 211.5,15.5C 211.5,82.1667 211.5,148.833 211.5,215.5C 144.833,215.5 78.1667,215.5 11.5,215.5C 11.5,148.833 11.5,82.1667 11.5,15.5 Z"/></g>
<g><path style="opacity:1" fill="#3eb7ff" d="M 65.5,34.5 C 71.5,34.5 77.5,34.5 83.5,34.5C 90.7601,57.2801 98.4268,79.9467 106.5,102.5C 101.869,103.662 97.202,103.828 92.5,103C 90.9409,98.1568 89.2742,93.3235 87.5,88.5C 78.5246,87.5018 69.5246,87.1685 60.5,87.5C 59.3344,92.8302 57.6677,97.9968 55.5,103C 50.8333,103.667 46.1667,103.667 41.5,103C 49.6023,80.1926 57.6023,57.3593 65.5,34.5 Z"/></g>
<g><path style="opacity:1" fill="#39b6ff" d="M 145.5,34.5 C 149.833,34.5 154.167,34.5 158.5,34.5C 158.5,57.5 158.5,80.5 158.5,103.5C 154.167,103.5 149.833,103.5 145.5,103.5C 145.5,80.5 145.5,57.5 145.5,34.5 Z"/></g>
<g><path style="opacity:1" fill="#fafdff" d="M 82.5,74.5 C 76.8333,75.8333 71.1667,75.8333 65.5,74.5C 67.7606,66.051 70.4273,57.7177 73.5,49.5C 77.4638,57.3842 80.4638,65.7175 82.5,74.5 Z"/></g>
<g><path style="opacity:1" fill="#caebff" d="M 65.5,74.5 C 71.1667,75.8333 76.8333,75.8333 82.5,74.5C 83.0431,74.56 83.3764,74.8933 83.5,75.5C 77.1667,76.8333 70.8333,76.8333 64.5,75.5C 64.6236,74.8933 64.9569,74.56 65.5,74.5 Z"/></g>
<g><path style="opacity:1" fill="#41b8ff" d="M 150.5,125.5 C 161.411,124.307 170.911,127.307 179,134.5C 180.555,136.443 181.722,138.61 182.5,141C 179.59,143.73 176.256,145.897 172.5,147.5C 167.516,139.18 160.183,136.014 150.5,138C 145.606,139.686 142.106,142.853 140,147.5C 138.437,155.087 138.104,162.754 139,170.5C 142.92,183.543 151.42,187.709 164.5,183C 166.09,181.954 167.59,180.787 169,179.5C 170.233,176.583 171.733,173.916 173.5,171.5C 177.033,173.429 180.367,175.595 183.5,178C 176.8,193.186 165.134,199.186 148.5,196C 133.919,192.081 125.752,182.581 124,167.5C 121.482,152.01 126.316,139.51 138.5,130C 142.432,127.972 146.432,126.472 150.5,125.5 Z"/></g>
<g><path style="opacity:1" fill="#64c5ff" d="M 85.5,127.5 C 74.5,127.5 63.5,127.5 52.5,127.5C 52.5,150.167 52.5,172.833 52.5,195.5C 51.5025,172.673 51.1692,149.673 51.5,126.5C 63.0123,126.172 74.3456,126.505 85.5,127.5 Z"/></g>
<g><path style="opacity:1" fill="#3db7ff" d="M 85.5,127.5 C 97.7145,129.234 102.548,136.234 100,148.5C 98.3819,152.281 95.8819,155.281 92.5,157.5C 105.509,163.546 109.009,173.212 103,186.5C 99.4562,191.522 94.6229,194.356 88.5,195C 76.5046,195.5 64.5046,195.667 52.5,195.5C 52.5,172.833 52.5,150.167 52.5,127.5C 63.5,127.5 74.5,127.5 85.5,127.5 Z"/></g>
<g><path style="opacity:1" fill="#fbfdff" d="M 65.5,137.5 C 71.5092,137.334 77.5092,137.501 83.5,138C 87.7881,141.771 88.6214,146.271 86,151.5C 85.2496,152.126 84.4162,152.626 83.5,153C 77.5933,154.361 71.5933,154.861 65.5,154.5C 65.5,148.833 65.5,143.167 65.5,137.5 Z"/></g>
<g><path style="opacity:1" fill="#fefeff" d="M 65.5,164.5 C 72.9209,164.109 80.2542,164.609 87.5,166C 90.8295,167.846 92.1628,170.679 91.5,174.5C 92.1406,179.394 90.1406,182.561 85.5,184C 78.8417,184.5 72.175,184.666 65.5,184.5C 65.5,177.833 65.5,171.167 65.5,164.5 Z"/></g>
<g><path style="opacity:1" fill="#c9ebff" d="M 217.5,8.5 C 218.499,79.6647 218.833,150.998 218.5,222.5C 146.998,222.833 75.6647,222.499 4.5,221.5C 4.83333,221.5 5.16667,221.5 5.5,221.5C 76.1667,221.5 146.833,221.5 217.5,221.5C 217.5,150.833 217.5,80.1667 217.5,9.5C 217.5,9.16667 217.5,8.83333 217.5,8.5 Z"/></g>
</svg>
